<svg width="130" height="130" viewBox="0 0 130 130" fill="none" xmlns="http://www.w3.org/2000/svg">
<path fill-rule="evenodd" clip-rule="evenodd" d="M9.516 9.516C0 19.045 0 34.359 0 65C0 95.641 0 110.961 9.516 120.477C19.045 130 34.359 130 65 130C95.641 130 110.961 130 120.477 120.477C130 110.968 130 95.641 130 65C130 34.359 130 19.0385 120.477 9.516C110.968 0 95.641 0 65 0C34.359 0 19.0385 0 9.516 9.516ZM28.756 48.88C29.5837 47.8874 30.7717 47.264 32.0588 47.147C33.346 47.03 34.6269 47.4289 35.62 48.256L37.4205 49.751C41.353 53.027 44.7005 55.8155 47.0145 58.383C49.478 61.113 51.3955 64.2395 51.3955 68.25C51.3955 72.2605 49.478 75.3935 47.0145 78.117C44.7005 80.6845 41.353 83.473 37.4205 86.749L35.62 88.244C35.1308 88.672 34.5609 88.9979 33.9438 89.2024C33.3268 89.4069 32.6751 89.4859 32.0271 89.4348C31.379 89.3837 30.7478 89.2036 30.1704 88.9049C29.593 88.6063 29.0812 88.1952 28.665 87.6958C28.2489 87.1964 27.9368 86.6189 27.7472 85.9971C27.5575 85.3753 27.4942 84.7219 27.5608 84.0753C27.6274 83.4287 27.8227 82.8019 28.1351 82.2319C28.4475 81.6618 28.8708 81.16 29.38 80.756L30.901 79.4885C35.1845 75.9135 37.986 73.5735 39.78 71.5845C41.483 69.6995 41.6455 68.809 41.6455 68.25C41.6455 67.691 41.483 66.807 39.78 64.9155C37.9795 62.9265 35.1845 60.58 30.901 57.0115L29.38 55.744C28.3874 54.9163 27.764 53.7283 27.647 52.4412C27.53 51.154 27.9289 49.8731 28.756 48.88ZM102.375 84.5C102.375 85.7929 101.861 87.0329 100.947 87.9471C100.033 88.8614 98.7929 89.375 97.5 89.375H65C63.7071 89.375 62.4671 88.8614 61.5529 87.9471C60.6386 87.0329 60.125 85.7929 60.125 84.5C60.125 83.2071 60.6386 81.9671 61.5529 81.0529C62.4671 80.1386 63.7071 79.625 65 79.625H97.5C98.7929 79.625 100.033 80.1386 100.947 81.0529C101.861 81.9671 102.375 83.2071 102.375 84.5Z" fill="url(#paint0_linear_194_450)"/>
<defs>
<linearGradient id="paint0_linear_194_450" x1="-61.3595" y1="-60.4118" x2="157.304" y2="162.625" gradientUnits="userSpaceOnUse">
<stop stop-color="#1D0CD2"/>
<stop offset="1" stop-color="#7802AE"/>
</linearGradient>
</defs>
</svg>
