<svg width="130" height="130" viewBox="0 0 130 130" fill="none" xmlns="http://www.w3.org/2000/svg">
<path d="M117 72.2222H13C5.85 72.2222 0 78.7222 0 86.6666V115.556C0 123.5 5.85 130 13 130H117C124.15 130 130 123.5 130 115.556V86.6666C130 78.7222 124.15 72.2222 117 72.2222ZM13 115.556V86.6666H117V115.556H13Z" fill="url(#paint0_linear_194_460)"/>
<path d="M97.5 100.389C97.5 96.7991 100.41 93.889 104 93.889C107.59 93.889 110.5 96.7991 110.5 100.389V101.833C110.5 105.423 107.59 108.333 104 108.333C100.41 108.333 97.5 105.423 97.5 101.833V100.389ZM78 100.389C78 96.7991 80.9101 93.889 84.5 93.889C88.0899 93.889 91 96.7991 91 100.389V101.833C91 105.423 88.0899 108.333 84.5 108.333C80.9101 108.333 78 105.423 78 101.833V100.389ZM117 0H13C5.85 0 0 6.5 0 14.4445V43.3334C0 51.2778 5.85 57.7778 13 57.7778H117C124.15 57.7778 130 51.2778 130 43.3334V14.4445C130 6.5 124.15 0 117 0ZM19.5 43.3334C15.9101 43.3334 13 40.4232 13 36.8334V20.9445C13 17.3546 15.9101 14.4445 19.5 14.4445H110.5C114.09 14.4445 117 17.3546 117 20.9445V36.8334C117 40.4232 114.09 43.3334 110.5 43.3334H19.5Z" fill="url(#paint1_linear_194_460)"/>
<path d="M97.5 28.1667C97.5 24.5768 100.41 21.6667 104 21.6667C107.59 21.6667 110.5 24.5768 110.5 28.1667V29.6111C110.5 33.201 107.59 36.1111 104 36.1111C100.41 36.1111 97.5 33.201 97.5 29.6111V28.1667ZM78 28.1667C78 24.5768 80.9101 21.6667 84.5 21.6667C88.0899 21.6667 91 24.5768 91 28.1667V29.6111C91 33.201 88.0899 36.1111 84.5 36.1111C80.9101 36.1111 78 33.201 78 29.6111V28.1667Z" fill="url(#paint2_linear_194_460)"/>
<defs>
<linearGradient id="paint0_linear_194_460" x1="-95.0803" y1="-114.846" x2="192.58" y2="174.971" gradientUnits="userSpaceOnUse">
<stop stop-color="#1D0CD2"/>
<stop offset="1" stop-color="#7802AE"/>
</linearGradient>
<linearGradient id="paint1_linear_194_460" x1="-95.0803" y1="-114.846" x2="192.58" y2="174.971" gradientUnits="userSpaceOnUse">
<stop stop-color="#1D0CD2"/>
<stop offset="1" stop-color="#7802AE"/>
</linearGradient>
<linearGradient id="paint2_linear_194_460" x1="-95.0803" y1="-114.846" x2="192.58" y2="174.971" gradientUnits="userSpaceOnUse">
<stop stop-color="#1D0CD2"/>
<stop offset="1" stop-color="#7802AE"/>
</linearGradient>
</defs>
</svg>
