<svg width="113" height="130" viewBox="0 0 113 130" fill="none" xmlns="http://www.w3.org/2000/svg">
<path d="M100.454 94.1272V53.1819C100.454 41.8732 100.441 33.9846 99.6405 28.0336C98.863 22.2531 97.4409 19.193 95.2607 17.0146C93.0779 14.8338 90.0153 13.41 84.236 12.6319C78.2859 11.8308 70.3984 11.8182 59.0907 11.8182H53.1816C41.873 11.8182 33.9845 11.8315 28.0335 12.6319C22.253 13.4094 19.1929 14.8315 17.0145 17.0117C14.8338 19.1946 13.4099 22.2571 12.6318 28.0365C11.8308 33.9866 11.8181 41.8741 11.8181 53.1819V109.318C11.8181 112.582 9.17255 115.227 5.90908 115.227C2.6456 115.227 2.46493e-05 112.582 6.37609e-06 109.318V53.1819C6.37609e-06 42.2067 -0.0113171 33.3824 0.920413 26.4611C1.87501 19.3703 3.91532 13.4011 8.65298 8.6588C13.3938 3.91389 19.3667 1.87141 26.4581 0.917536C33.38 -0.0134354 42.2072 1.05982e-05 53.1816 1.05982e-05H59.0907C70.0658 1.05716e-05 78.8901 -0.011322 85.8113 0.920421C92.9021 1.87503 98.8713 3.91531 103.614 8.65303C108.358 13.3939 110.401 19.3668 111.355 26.4582C112.286 33.3801 112.272 42.2074 112.272 53.1819V94.1272C112.272 97.3901 109.626 100.036 106.363 100.036C103.1 100.036 100.455 97.3901 100.454 94.1272Z" fill="url(#paint0_linear_194_463)"/>
<path d="M6.37609e-06 109.318C6.37609e-06 103.833 2.17764 98.5712 6.05622 94.6926C9.9348 90.814 15.1966 88.6364 20.6817 88.6364H106.363C109.627 88.6364 112.272 91.282 112.272 94.5454C112.272 97.8089 109.627 100.455 106.363 100.455H20.6817C18.331 100.455 16.0771 101.389 14.4149 103.051C12.7527 104.714 11.8181 106.967 11.8181 109.318C11.8181 111.669 12.7527 113.923 14.4149 115.585C16.0771 117.247 18.331 118.182 20.6817 118.182H106.363C109.627 118.182 112.272 120.827 112.272 124.091C112.272 127.354 109.627 130 106.363 130H20.6817C15.1966 130 9.9348 127.822 6.05622 123.944C2.17764 120.065 7.4954e-06 114.803 6.37609e-06 109.318Z" fill="url(#paint1_linear_194_463)"/>
<path d="M85.6821 109.318C85.6821 103.833 87.8598 98.5712 91.7383 94.6926C95.6169 90.814 100.878 88.6364 106.363 88.6364C109.627 88.6364 112.272 91.282 112.272 94.5454C112.272 97.8089 109.627 100.455 106.363 100.455C104.012 100.455 101.759 101.389 100.097 103.051C98.4348 104.714 97.5003 106.967 97.5003 109.318C97.5003 111.669 98.4348 113.923 100.097 115.585C101.759 117.247 104.012 118.182 106.363 118.182C109.627 118.182 112.272 120.827 112.272 124.091C112.272 127.354 109.627 130 106.363 130C100.878 130 95.6169 127.822 91.7383 123.944C87.8598 120.065 85.6821 114.803 85.6821 109.318Z" fill="url(#paint2_linear_194_463)"/>
<path d="M45.345 29.5535C47.1305 29.559 48.879 30.0276 50.4174 30.9211L51.0925 31.3481L51.7302 31.8271C52.9646 32.8321 53.9466 34.1128 54.5952 35.5664L54.8924 36.3079L54.9444 36.4695L63.58 63.1845C64.5823 66.289 62.8784 69.619 59.7743 70.6228C56.669 71.6263 53.3367 69.9225 52.3332 66.8171L50.7924 62.0448H39.6639L38.1231 66.8171C37.1196 69.9225 33.7874 71.6263 30.682 70.6228C27.5775 69.6192 25.8738 66.2893 26.8763 63.1845L35.5091 36.4695L35.5639 36.3079C36.278 34.2966 37.608 32.5617 39.3638 31.3481L40.0361 30.9211C41.5742 30.0273 43.323 29.5594 45.1084 29.5535V29.5477C45.1477 29.5469 45.1875 29.5509 45.2267 29.5506C45.2667 29.5509 45.3079 29.5469 45.3479 29.5477L45.345 29.5535ZM67.9541 64.9994V35.4539C67.9546 32.1908 70.6 29.5448 73.8632 29.5448C77.1264 29.5448 79.7718 32.1908 79.7723 35.4539V64.9994C79.7723 68.2629 77.1267 70.9084 73.8632 70.9085C70.5997 70.9085 67.9541 68.2629 67.9541 64.9994ZM43.484 50.2266H46.9723L45.2267 44.8282L43.484 50.2266Z" fill="url(#paint3_linear_194_463)"/>
<defs>
<linearGradient id="paint0_linear_194_463" x1="-56.0727" y1="-53.1818" x2="168.473" y2="171.363" gradientUnits="userSpaceOnUse">
<stop stop-color="#1D0CD2"/>
<stop offset="1" stop-color="#7802AE"/>
</linearGradient>
<linearGradient id="paint1_linear_194_463" x1="56.1361" y1="94.5455" x2="56.1361" y2="124.091" gradientUnits="userSpaceOnUse">
<stop stop-color="#1D0CD2"/>
<stop offset="1" stop-color="#7802AE"/>
</linearGradient>
<linearGradient id="paint2_linear_194_463" x1="98.9775" y1="94.5455" x2="98.9775" y2="124.091" gradientUnits="userSpaceOnUse">
<stop stop-color="#1D0CD2"/>
<stop offset="1" stop-color="#7802AE"/>
</linearGradient>
<linearGradient id="paint3_linear_194_463" x1="53.1814" y1="35.4539" x2="53.1814" y2="65.0002" gradientUnits="userSpaceOnUse">
<stop stop-color="#1D0CD2"/>
<stop offset="1" stop-color="#7802AE"/>
</linearGradient>
</defs>
</svg>
